<?xml version="1.0" encoding="UTF-8" standalone="no"?>
<!-- Created with Inkscape (http://www.inkscape.org/) -->

<svg xmlns:dc="http://purl.org/dc/elements/1.1/" xmlns:cc="http://creativecommons.org/ns#" xmlns:rdf="http://www.w3.org/1999/02/22-rdf-syntax-ns#" xmlns:svg="http://www.w3.org/2000/svg" xmlns="http://www.w3.org/2000/svg" xmlns:sodipodi="http://sodipodi.sourceforge.net/DTD/sodipodi-0.dtd" xmlns:inkscape="http://www.inkscape.org/namespaces/inkscape" width="264.10483" height="57.227039" id="svg2" sodipodi:version="0.32" inkscape:version="0.48.2 r9819" version="1.0" sodipodi:docname="institute-logo.svg" inkscape:output_extension="org.inkscape.output.svg.inkscape">
  <defs id="defs4">
    <inkscape:perspective sodipodi:type="inkscape:persp3d" inkscape:vp_x="0 : 526.18109 : 1" inkscape:vp_y="0 : 1000 : 0" inkscape:vp_z="744.09448 : 526.18109 : 1" inkscape:persp3d-origin="372.04724 : 350.78739 : 1" id="perspective10" />
    <inkscape:perspective id="perspective3328" inkscape:persp3d-origin="372.04724 : 350.78739 : 1" inkscape:vp_z="744.09448 : 526.18109 : 1" inkscape:vp_y="0 : 1000 : 0" inkscape:vp_x="0 : 526.18109 : 1" sodipodi:type="inkscape:persp3d" />
  </defs>
  <sodipodi:namedview id="base" pagecolor="#ffffff" bordercolor="#666666" borderopacity="1.0" inkscape:pageopacity="0.0" inkscape:pageshadow="2" inkscape:zoom="2.8284271" inkscape:cx="89.628092" inkscape:cy="5.7424041" inkscape:document-units="px" inkscape:current-layer="layer1" showgrid="true" inkscape:snap-bbox="true" inkscape:object-paths="true" inkscape:object-nodes="true" inkscape:bbox-paths="true" inkscape:bbox-nodes="true" objecttolerance="50" gridtolerance="50" guidetolerance="50" showguides="true" inkscape:guide-bbox="true" inkscape:snap-global="false" inkscape:window-width="1680" inkscape:window-height="1026" inkscape:window-x="0" inkscape:window-y="24" units="px" fit-margin-top="5" fit-margin-left="5" fit-margin-right="5" fit-margin-bottom="5" inkscape:window-maximized="1" />
  <metadata id="metadata7">
    <rdf:RDF>
      <cc:Work rdf:about="">
        <dc:format>image/svg+xml</dc:format>
        <dc:type rdf:resource="http://purl.org/dc/dcmitype/StillImage" />
      </cc:Work>
    </rdf:RDF>
  </metadata>
  <g inkscape:label="Ebene 1" inkscape:groupmode="layer" id="layer1" transform="translate(-80.015922,-18.238831)">
    <path style="fill:#f50012;fill-opacity:1;stroke:none" d="m 85.015922,23.238831 0,4.000012 4,0 0,-4.000012 -4,0 z m 4,4.000012 0,4.00004 4,0 0,-4.00004 -4,0 z m 4,0 3.999998,0 0,-4.000012 -3.999998,0 0,4.000012 z m 3.999998,0 0,4.00004 4.00004,0 0,-4.00004 -4.00004,0 z m 4.00004,0 3.99992,0 0,-4.000012 -3.99992,0 0,4.000012 z m 0,4.00004 0,15.226989 c 0,4.416002 3.58396,7.99996 7.99996,7.99996 4.416,1e-6 7.99996,-3.58396 7.99996,-7.99996 l 0,-23.227041 -3.99992,0 0,23.227041 c 0,2.208 -1.79204,4.000037 -4.00004,4.00004 -2.208,-2e-6 -4.00004,-1.792042 -4.00004,-4.00004 l 0,-15.226989 -3.99992,0 z m -4.00004,0 -3.999998,0 0,15.226989 c 0,8.832002 7.167998,16.00004 15.999998,16.00004 8.832,2e-6 16.00004,-7.16804 16.00004,-16.00004 l 0,-23.227041 -4.00004,0 0,23.227041 c 0,6.623999 -5.376,11.999998 -12,12 -6.624,-2e-6 -12,-5.376003 -12,-12 l 0,-15.226989 z m -7.999998,0 -4,0 0,15.226989 c 0,13.247997 10.751998,24.000001 23.999998,24 13.248,2e-6 24,-10.752005 24,-24 l 0,-23.227041 -4.00004,0 0,23.227041 c 0,11.039997 -8.95996,19.99996 -19.99996,19.99996 -11.03999,2e-6 -19.999998,-8.959965 -19.999998,-19.99996 l 0,-15.226989 z" id="path3232" sodipodi:nodetypes="cccccccccccccccccccccccccccsccccsccccccsccccscccccsccccscc" inkscape:connector-curvature="0" />
    <g style="font-size:22px;font-style:normal;font-variant:normal;font-weight:500;font-stretch:normal;line-height:125%;letter-spacing:0px;word-spacing:0px;fill:#000000;fill-opacity:1;stroke:none;font-family:Helvetica;-inkscape-font-specification:Helvetica Medium" id="text2985">
      <path d="m 165.94258,38.745351 0,9.988 c 0,3.431997 -2.2,4.334 -4.158,4.334 -1.91399,0 -4.004,-0.946003 -4.004,-4.378 l 0,-9.944 -2.134,0 0,10.538 c 0,2.947997 1.82601,5.676 6.072,5.676 4.334,0 6.358,-2.728003 6.358,-5.962 l 0,-10.252 -2.134,0" style="" id="path2990" />
      <path d="m 180.60902,46.709351 c 0,-3.277996 -2.244,-4.004 -4.026,-4.004 -1.98,0 -3.058,1.342001 -3.476,1.958 l -0.044,0 0,-1.628 -1.826,0 0,11.506 1.936,0 0,-6.27 c 0,-3.123997 1.936,-3.828 3.036,-3.828 1.892,0 2.464,1.012002 2.464,3.014 l 0,7.084 1.936,0 0,-7.832" style="" id="path2992" />
      <path d="m 185.46312,43.035351 -1.936,0 0,11.506 1.936,0 0,-11.506 m 0,-2.09 0,-2.2 -1.936,0 0,2.2 1.936,0" style="" id="path2994" />
      <path d="m 192.40755,52.407351 -0.044,0 -2.992,-9.372 -2.244,0 4.202,11.506 2.068,0 4.378,-11.506 -2.112,0 -3.256,9.372" style="" id="path2996" />
      <path d="m 206.65496,50.933351 c -0.066,0.857999 -1.144,2.266 -2.97,2.266 -2.222,0 -3.344,-1.386002 -3.344,-3.784 l 8.404,0 c 0,-4.069996 -1.628,-6.71 -4.95,-6.71 -3.806,0 -5.522,2.838004 -5.522,6.402 0,3.321997 1.914,5.764 5.148,5.764 1.848,0 2.596,-0.44 3.124,-0.792 1.452,-0.967999 1.98,-2.596 2.046,-3.146 l -1.936,0 m -6.314,-3.058 c 0,-1.781998 1.408,-3.432 3.19,-3.432 2.354,0 3.102,1.650002 3.212,3.432 l -6.402,0" style="" id="path2998" />
      <path d="m 213.26905,47.853351 c 0,-1.671998 1.14401,-3.08 2.948,-3.08 l 0.726,0 0,-2.002 c -0.154,-0.044 -0.264,-0.066 -0.506,-0.066 -1.452,0 -2.464,0.902002 -3.234,2.244 l -0.044,0 0,-1.914 -1.826,0 0,11.506 1.936,0 0,-6.688" style="" id="path3000" />
      <path d="m 226.82071,46.313351 c 0,-0.571999 -0.286,-3.608 -4.4,-3.608 -2.266,0 -4.356,1.144003 -4.356,3.674 0,1.583999 1.056,2.398001 2.662,2.794 l 2.244,0.55 c 1.65,0.418 2.288,0.726001 2.288,1.65 0,1.275999 -1.254,1.826 -2.64,1.826 -2.728,0 -2.992,-1.452001 -3.058,-2.354 l -1.87,0 c 0.066,1.385999 0.396,4.026 4.95,4.026 2.596,0 4.554,-1.430002 4.554,-3.806 0,-1.561998 -0.836,-2.442 -3.234,-3.036 l -1.936,-0.484 c -1.496,-0.373999 -2.09,-0.594001 -2.09,-1.54 0,-1.429998 1.694,-1.628 2.288,-1.628 2.442,0 2.706,1.210001 2.728,1.936 l 1.87,0" style="" id="path3002" />
      <path d="m 231.39671,43.035351 -1.936,0 0,11.506 1.936,0 0,-11.506 m 0,-2.09 0,-2.2 -1.936,0 0,2.2 1.936,0" style="" id="path3004" />
      <path d="m 238.53915,44.641351 0,-1.606 -1.848,0 0,-3.212 -1.936,0 0,3.212 -1.562,0 0,1.606 1.562,0 0,7.59 c 0,1.385999 0.418,2.464 2.332,2.464 0.198,0 0.748,-0.088 1.452,-0.154 l 0,-1.518 -0.682,0 c -0.396,0 -1.166,-10e-7 -1.166,-0.902 l 0,-7.48 1.848,0" style="" id="path3006" />
      <path d="m 242.13271,46.533351 c 0.132,-0.879999 0.44,-2.222 2.64,-2.222 1.826,0 2.706,0.660002 2.706,1.87 0,1.143999 -0.55,1.32 -1.012,1.364 l -3.19,0.396 c -3.212,0.396 -3.498,2.640001 -3.498,3.608 0,1.979998 1.496,3.322 3.608,3.322 2.244,0 3.41,-1.056 4.158,-1.87 0.066,0.879999 0.33,1.76 2.046,1.76 0.44,0 0.726,-0.132 1.056,-0.22 l 0,-1.408 c -0.22,0.044 -0.462,0.088 -0.638,0.088 -0.396,0 -0.638,-0.198 -0.638,-0.682 l 0,-6.622 c 0,-2.947997 -3.344,-3.212 -4.268,-3.212 -2.838,0 -4.664,1.078003 -4.752,3.828 l 1.782,0 m 5.302,4.026 c 0,1.539999 -1.76,2.706 -3.564,2.706 -1.452,0 -2.09,-0.748001 -2.09,-2.002 0,-1.451998 1.518,-1.738 2.464,-1.87 2.398,-0.307999 2.882,-0.484 3.19,-0.726 l 0,1.892 m -3.102,-11.55 -2.002,0 0,2.244 2.002,0 0,-2.244 m 3.564,0 -2.002,0 0,2.244 2.002,0 0,-2.244" style="" id="path3008" />
      <path d="m 256.8868,44.641351 0,-1.606 -1.848,0 0,-3.212 -1.936,0 0,3.212 -1.562,0 0,1.606 1.562,0 0,7.59 c 0,1.385999 0.41801,2.464 2.332,2.464 0.198,0 0.748,-0.088 1.452,-0.154 l 0,-1.518 -0.682,0 c -0.396,0 -1.166,-10e-7 -1.166,-0.902 l 0,-7.48 1.848,0" style="" id="path3010" />
      <path d="m 267.19793,40.571351 3.872,0 c 2.376,0 3.278,0.836002 3.278,2.31 0,1.935998 -1.254,2.552 -3.3,2.552 l -3.85,0 0,-4.862 m -2.134,13.97 6.798,0 c 3.49799,0 5.368,-2.134002 5.368,-4.664 0,-2.705997 -1.826,-3.432 -2.86,-3.85 1.738,-0.813999 2.112,-2.266001 2.112,-3.3 0,-2.155998 -1.518,-3.982 -4.466,-3.982 l -6.952,0 0,15.796 m 2.134,-7.37 4.202,0 c 1.738,0 3.696,0.440003 3.696,2.662 0,1.759999 -1.122,2.882 -3.344,2.882 l -4.554,0 0,-5.544" style="" id="path3012" />
      <path d="m 281.76124,47.853351 c 0,-1.671998 1.144,-3.08 2.948,-3.08 l 0.726,0 0,-2.002 c -0.154,-0.044 -0.264,-0.066 -0.506,-0.066 -1.452,0 -2.464,0.902002 -3.234,2.244 l -0.044,0 0,-1.914 -1.826,0 0,11.506 1.936,0 0,-6.688" style="" id="path3014" />
      <path d="m 294.7409,50.933351 c -0.066,0.857999 -1.144,2.266 -2.97,2.266 -2.222,0 -3.344,-1.386002 -3.344,-3.784 l 8.404,0 c 0,-4.069996 -1.62801,-6.71 -4.95,-6.71 -3.806,0 -5.522,2.838004 -5.522,6.402 0,3.321997 1.914,5.764 5.148,5.764 1.848,0 2.596,-0.44 3.124,-0.792 1.452,-0.967999 1.98,-2.596 2.046,-3.146 l -1.936,0 m -6.314,-3.058 c 0,-1.781998 1.408,-3.432 3.19,-3.432 2.35399,0 3.102,1.650002 3.212,3.432 l -6.402,0" style="" id="path3016" />
      <path d="m 299.15499,54.541351 1.936,0 0,-6.27 c 0,-3.123997 1.936,-3.828 3.036,-3.828 1.43,0 1.804,1.166001 1.804,2.134 l 0,7.964 1.936,0 0,-7.018 c 0,-1.539998 1.078,-3.08 2.706,-3.08 1.65,0 2.134,1.078002 2.134,2.662 l 0,7.436 1.936,0 0,-7.964 c 0,-3.233996 -2.332,-3.872 -3.564,-3.872 -1.782,0 -2.552,0.792001 -3.52,1.87 -0.33,-0.615999 -0.99,-1.87 -3.058,-1.87 -2.068,0 -3.058,1.342001 -3.476,1.958 l -0.044,0 0,-1.628 -1.826,0 0,11.506" style="" id="path3018" />
      <path d="m 325.33465,50.933351 c -0.066,0.857999 -1.144,2.266 -2.97,2.266 -2.222,0 -3.344,-1.386002 -3.344,-3.784 l 8.404,0 c 0,-4.069996 -1.62801,-6.71 -4.95,-6.71 -3.806,0 -5.522,2.838004 -5.522,6.402 0,3.321997 1.914,5.764 5.148,5.764 1.848,0 2.596,-0.44 3.124,-0.792 1.452,-0.967999 1.98,-2.596 2.046,-3.146 l -1.936,0 m -6.314,-3.058 c 0,-1.781998 1.408,-3.432 3.19,-3.432 2.35399,0 3.102,1.650002 3.212,3.432 l -6.402,0" style="" id="path3020" />
      <path d="m 339.12074,46.709351 c 0,-3.277996 -2.244,-4.004 -4.026,-4.004 -1.98,0 -3.058,1.342001 -3.476,1.958 l -0.044,0 0,-1.628 -1.826,0 0,11.506 1.936,0 0,-6.27 c 0,-3.123997 1.936,-3.828 3.036,-3.828 1.892,0 2.464,1.012002 2.464,3.014 l 0,7.084 1.936,0 0,-7.832" style="" id="path3022" />
    </g>
  </g>
</svg>
